<svg width="2020" height="78" viewBox="0 0 2020 78" fill="none" xmlns="http://www.w3.org/2000/svg">
<path d="M0 24.0007C0 15.1641 7.25404 8.00085 16.0906 7.99903C260.495 7.94883 369.79 6.76687 562 6.84553C679.678 19.534 726.645 -11.6501 778.287 6.66233C782.095 8.01272 786.083 8.88141 790.123 8.8735C860.767 8.73535 932.159 8.44211 1006.55 7.91497C1046.08 7.63494 1066 20.0002 1128.55 6.84567C1394.41 4.19914 1691.11 -0.0445457 1964.26 7.54912C1973.04 7.79312 1980 14.9838 1980 23.764V23.764C1980 32.7313 1972.73 40.0007 1963.76 40.0007H15.9999C7.16339 40.0007 0 32.8372 0 24.0007V24.0007Z" fill="#E92B2B"/>
<rect x="40" y="23" width="1980" height="32" rx="16" fill="#E92B2B"/>
<path d="M208 62C208 53.1634 215.163 46 224 46H1932.2C1940.92 46 1948 53.0755 1948 61.8035V61.8035C1948 70.6835 1940.41 77.8132 1931.53 77.599C1137.09 58.4259 886.937 77.6845 224.234 77.9962C215.398 78.0003 208 70.8366 208 62V62Z" fill="#E92B2B"/>
</svg>
